<svg xmlns="http://www.w3.org/2000/svg" width="512" height="512" viewBox="0 0 512 512" version="1.1">
	<path d="M 328.790 4.266 C 326.749 5.495, 321.124 8.994, 316.290 12.043 C 311.455 15.092, 305.475 18.163, 303 18.869 C 287.733 23.221, 268.141 32.606, 258.652 40.113 C 253.847 43.914, 246 53.773, 246 56.009 C 246 56.648, 243.750 61.551, 241 66.905 C 236.814 75.053, 235.999 77.523, 235.994 82.069 C 235.991 85.056, 235.560 89.075, 235.035 91 C 233.652 96.077, 231 114.685, 231 119.311 C 231 122.954, 230.264 124.023, 221.750 132.739 C 216.662 137.948, 209.800 144.288, 206.500 146.829 C 203.200 149.370, 199.600 152.276, 198.500 153.286 C 193.363 158.004, 168.370 172, 165.083 172 C 162.590 172, 162.492 159.347, 164.836 140 C 165.469 134.775, 166.414 125.550, 166.936 119.500 C 167.458 113.450, 168.796 104.225, 169.909 99 C 171.023 93.775, 171.949 88.059, 171.967 86.297 C 171.985 84.535, 172.420 82.060, 172.932 80.797 C 173.445 79.534, 174.620 75.800, 175.543 72.500 C 176.466 69.200, 177.634 65.105, 178.139 63.399 C 178.723 61.425, 180.773 59.081, 183.778 56.949 C 190.708 52.033, 196.349 46.463, 200.498 40.438 C 205.936 32.542, 204.921 31.280, 197 36.088 C 180.367 46.184, 169.112 49.969, 153.468 50.726 C 142.708 51.247, 142.165 51.168, 131.468 47.539 C 125.436 45.493, 118.436 42.510, 115.912 40.909 C 113.389 39.309, 110.374 38, 109.211 38 C 108.049 38, 104.488 37.263, 101.299 36.362 C 97.507 35.291, 91 34.661, 82.500 34.541 C 70.079 34.366, 69.211 34.488, 63 37.286 C 59.425 38.896, 53.704 41.078, 50.286 42.135 C 43.380 44.272, 41 46.714, 41 51.663 C 41 55.187, 42.409 56.708, 44.294 55.220 C 47.247 52.888, 55.298 48.989, 60.109 47.560 C 65.523 45.952, 80.572 45.440, 82.697 46.792 C 84.755 48.100, 89.710 63.131, 90.841 71.500 C 93.113 88.308, 93.877 148.432, 91.940 158 C 91.328 161.025, 90.435 173.400, 89.957 185.500 C 88.760 215.752, 87.702 226.943, 85.932 228.063 C 83.579 229.552, 81.468 229.133, 79.323 226.750 C 76.323 223.418, 75.983 222.582, 74.910 215.920 C 73.729 208.588, 70.916 202.252, 65.804 195.409 C 63.712 192.609, 62 190.030, 62 189.677 C 62 188.586, 53.949 175.816, 50.638 171.655 C 41.053 159.610, 27.300 147.287, 24.599 148.324 C 23.614 148.702, 23.139 153.073, 22.718 165.665 C 22.307 177.957, 21.624 184.389, 20.189 189.500 C 19.109 193.350, 17.684 199.875, 17.022 204 C 16.361 208.125, 15.411 213.660, 14.910 216.299 C 13.471 223.885, 13.771 225.812, 17.644 233.895 C 24.917 249.070, 33.148 259.532, 42.500 265.488 C 46.936 268.313, 54.047 270.410, 62 271.239 C 65.222 271.575, 65.709 275.049, 63.568 282.416 C 61.829 288.397, 61.442 304.024, 62.966 306.764 C 63.497 307.719, 65.362 313.225, 67.110 319 C 69.109 325.603, 71.534 331.220, 73.644 334.134 C 75.490 336.683, 77 339.035, 77 339.361 C 77 339.688, 79.705 344.352, 83.011 349.727 C 89.671 360.556, 89.726 360.594, 110.785 369.139 C 115.341 370.987, 120.428 373.815, 122.089 375.422 C 125.130 378.364, 129.423 381, 131.174 381 C 132.764 381, 148.740 388.883, 150.289 390.432 C 156.946 397.088, 161.877 398.068, 177.646 395.864 C 187.054 394.550, 197.861 395.726, 205.171 398.859 C 209.089 400.538, 210.033 401.597, 212.830 407.453 C 215.994 414.077, 220.808 421, 222.250 421 C 223.602 421, 222.993 416.582, 221.051 412.304 C 215.905 400.970, 205.290 390.782, 194.250 386.583 C 189.835 384.903, 187 383.256, 187 382.370 C 187 381.569, 188.899 378.346, 191.219 375.207 C 196.587 367.947, 203 354.923, 203 351.285 C 203 349.746, 202.502 346.915, 201.893 344.993 C 201.285 343.072, 200.416 337.450, 199.962 332.500 C 199.508 327.550, 198.404 320.575, 197.507 317 C 195.576 309.303, 193.603 286.929, 194.455 282.388 C 194.784 280.635, 195.749 278.623, 196.600 277.917 C 198.310 276.497, 202 269.708, 202 267.979 C 202 267.320, 200.501 267.004, 198.258 267.190 C 194.955 267.464, 194.243 268.027, 192.182 272 C 187.627 280.782, 181.860 284.608, 175.745 282.904 C 173.613 282.310, 172.370 282.648, 170.245 284.398 C 168.735 285.642, 166.713 286.947, 165.750 287.298 C 164.744 287.665, 164 288.962, 164 290.346 C 164 291.671, 163.292 293.343, 162.427 294.061 C 160.330 295.801, 157 302.432, 157 304.868 C 157 305.939, 155.200 310.273, 153 314.500 C 150.800 318.727, 149 323.001, 149 323.998 C 149 324.995, 147.422 327.700, 145.493 330.008 C 143.565 332.317, 141.730 335.397, 141.415 336.853 C 141.101 338.309, 140.448 340.400, 139.964 341.500 C 138.467 344.901, 136.883 352.002, 137.426 352.881 C 137.710 353.340, 137.557 355.059, 137.086 356.702 C 136.517 358.684, 136.722 361.626, 137.696 365.450 C 139.413 372.190, 138.815 376, 136.040 376 C 134.983 376, 133.840 375.550, 133.500 375 C 133.160 374.450, 131.869 374, 130.631 374 C 129.393 374, 126.048 372.009, 123.198 369.576 C 120.348 367.143, 115.537 363.980, 112.508 362.547 C 109.478 361.114, 107 359.505, 107 358.971 C 107 358.437, 106.325 358, 105.500 358 C 104.675 358, 104 357.550, 104 357 C 104 356.450, 103.383 356, 102.629 356 C 101.876 356, 98.931 352.417, 96.086 348.038 C 93.241 343.660, 89.757 339.167, 88.343 338.055 C 81.171 332.413, 73.205 313.359, 71.049 296.687 C 69.517 284.848, 71.211 271.808, 75.685 261 C 79.497 251.789, 83.884 244.485, 85.778 244.196 C 87.554 243.924, 87.852 244.678, 88.550 251.196 C 88.980 255.213, 89.433 274.700, 89.558 294.500 C 89.682 314.300, 89.833 330.968, 89.892 331.540 C 89.951 332.112, 91.778 334.544, 93.950 336.945 C 96.123 339.345, 98.500 342.548, 99.233 344.063 C 100.717 347.125, 118.589 360.958, 121.095 360.984 C 121.972 360.993, 123.508 361.903, 124.507 363.007 C 125.894 364.541, 131.405 368, 132.460 368 C 132.544 368, 132.702 362.888, 132.811 356.640 C 132.985 346.672, 133.315 344.706, 135.505 340.587 C 136.877 338.006, 138 335.239, 138 334.438 C 138 333.638, 139.350 331.119, 141 328.841 C 142.650 326.564, 144.012 323.755, 144.026 322.600 C 144.040 321.445, 145.615 318.046, 147.526 315.046 C 149.437 312.047, 151 308.836, 151 307.911 C 151 306.986, 151.672 304.940, 152.494 303.364 C 153.315 301.789, 153.990 299.775, 153.994 298.890 C 153.997 298.004, 155.033 295.754, 156.295 293.890 C 159.984 288.442, 162.333 281.938, 162.937 275.500 L 163.500 269.500 170.180 266 C 179.743 260.990, 191.841 253.641, 196.536 249.990 C 200.358 247.019, 204.359 244.680, 210 242.120 C 211.892 241.262, 213.685 241.291, 217.377 242.243 C 221.909 243.411, 222.388 243.842, 224.145 248.339 C 225.185 251, 227.365 254.825, 228.989 256.839 C 246.701 278.803, 247.220 279.645, 261.790 310 C 263.242 313.025, 267.613 320.450, 271.503 326.500 C 275.394 332.550, 279.620 339.670, 280.895 342.322 C 282.169 344.974, 283.851 347.389, 284.632 347.689 C 285.412 347.988, 288.110 352.343, 290.627 357.367 C 295.281 366.655, 299.518 373.006, 306.250 380.787 C 308.313 383.171, 310 385.904, 310 386.861 C 310 387.817, 310.422 389.027, 310.938 389.550 C 311.454 390.072, 313.535 393.864, 315.563 397.975 C 339.067 445.629, 375.405 483.198, 420.374 506.338 C 427.657 510.086, 437.965 511.283, 466.402 511.684 C 493.275 512.063, 493.306 512.061, 495.758 509.782 C 499.231 506.554, 503.765 499.783, 504.551 496.654 C 504.917 495.194, 505.618 494, 506.108 494 C 506.599 494, 507 489.500, 507 484 C 507 478.500, 506.585 474, 506.078 474 C 505.570 474, 504.661 472.502, 504.056 470.671 C 501.789 463.801, 489.265 449.100, 486.915 450.552 C 485.335 451.529, 485.916 454.614, 488.043 456.539 C 492.541 460.609, 498.879 472.804, 500.450 480.411 C 502.853 492.047, 502.776 492.360, 496.250 497.497 C 489.517 502.798, 481.768 505.987, 473.804 506.734 C 468.767 507.206, 467.765 506.980, 465.155 504.784 C 463.387 503.296, 460.313 502.041, 457.492 501.654 C 453.807 501.149, 451.553 499.954, 447.141 496.168 C 444.038 493.507, 436.100 487.038, 429.500 481.795 C 415.476 470.654, 415.416 470.589, 410.543 461.603 C 408.486 457.809, 405.517 453.623, 403.945 452.300 C 401.235 450.020, 399.609 447.473, 391.992 433.575 C 390.206 430.316, 387.274 425.591, 385.476 423.075 C 383.679 420.559, 381.492 416.772, 380.618 414.661 C 379.743 412.549, 377.934 409.521, 376.597 407.932 C 373.501 404.254, 369.616 395.894, 368.099 389.649 C 366.818 384.379, 360.699 372.933, 355.967 366.958 C 354.335 364.898, 353 362.443, 353 361.503 C 353 360.563, 351.008 357.578, 348.574 354.871 C 346.139 352.163, 343.861 348.497, 343.511 346.724 C 342.578 341.994, 340.899 337.893, 338.509 334.500 C 337.347 332.850, 335.578 329.025, 334.578 326 C 333.578 322.975, 330.286 315.325, 327.261 309 C 320.342 294.529, 313 277.157, 313 275.253 C 313 274.455, 312.365 272.384, 311.588 270.651 C 309.449 265.878, 307.268 258.348, 305.555 249.823 C 304.707 245.601, 302.708 239.751, 301.112 236.823 C 296.272 227.940, 289.244 203.133, 290.581 199.651 C 290.850 198.948, 294.092 196.847, 297.785 194.981 C 301.478 193.116, 305.850 190.602, 307.500 189.396 C 311.851 186.213, 319.551 182.722, 327 180.555 C 330.575 179.515, 335.034 177.537, 336.910 176.159 C 338.785 174.782, 341.935 173.077, 343.910 172.371 C 348.377 170.774, 357.661 170.637, 361.874 172.106 C 364.837 173.139, 365.325 172.956, 369.273 169.331 C 378.981 160.417, 386.900 158.058, 399.211 160.413 C 410.503 162.574, 412.815 164.035, 413.192 169.246 L 413.500 173.500 420.500 173.548 C 432.863 173.632, 435 176.812, 435 195.122 C 435 202.749, 435.376 207, 436.050 207 C 437.837 207, 442.409 204.311, 444.443 202.063 C 446.338 199.969, 446.342 199.752, 444.595 192.211 C 443.612 187.970, 441.002 180.113, 438.794 174.751 L 434.780 165.001 426.640 160.084 C 405.191 147.127, 389.314 128.425, 382.851 108.500 C 377.701 92.626, 375.761 81.830, 376.317 72.138 C 377.119 58.134, 380.414 50.584, 389.750 41.362 C 396.104 35.085, 397 33.752, 397 30.569 C 397 25.965, 395.146 25.179, 389.884 27.553 C 385.459 29.548, 382.013 33.141, 380.104 37.748 C 379.184 39.970, 378.021 40.901, 375.678 41.293 C 369.509 42.325, 367.156 43.784, 366.149 47.202 C 362.848 58.416, 358.112 69.937, 348.144 91 C 336.226 116.184, 320.974 136.866, 297.149 160.148 C 287.827 169.258, 280.584 177.291, 277.993 181.394 C 275.701 185.023, 272.823 188.781, 271.598 189.746 C 270.373 190.711, 265.800 194.750, 261.435 198.721 C 252.256 207.075, 235.654 217.925, 231.982 217.969 C 230.597 217.986, 227.829 219.111, 225.831 220.469 C 223.833 221.827, 219.600 224.087, 216.425 225.491 C 213.251 226.895, 208.783 229.576, 206.497 231.449 C 204.212 233.322, 200.577 235.782, 198.421 236.917 C 196.264 238.051, 192.250 240.765, 189.500 242.949 C 182.073 248.845, 166.724 258, 164.265 258 C 163.084 258, 161.768 257.438, 161.341 256.750 C 160.313 255.096, 160.032 215.167, 160.962 202.675 L 161.692 192.851 170.032 184.468 C 175.726 178.744, 181.721 174.034, 188.935 169.615 C 209.058 157.289, 225.473 143.451, 236.547 129.477 C 243.183 121.104, 244.797 120.038, 250.884 120.014 C 259.531 119.979, 277.888 113.859, 289.791 107.043 C 293.875 104.704, 301.907 94.052, 302.059 90.775 C 302.091 90.074, 303.104 87.664, 304.309 85.420 C 308.876 76.917, 309.879 74.185, 312.546 63 C 314.053 56.675, 315.960 49.925, 316.782 48 C 317.604 46.075, 318.710 43.375, 319.240 42 C 322.123 34.510, 329.952 20.399, 335.767 12.208 C 340.086 6.127, 340.176 5.852, 338.462 3.958 C 336.161 1.416, 333.378 1.504, 328.790 4.266 M 88.359 365.227 C 87.484 366.644, 86.404 372.851, 85.094 384 C 84.609 388.125, 83.771 392.850, 83.231 394.500 C 82.691 396.150, 81.715 399.975, 81.063 403 C 79.861 408.575, 78.813 411.909, 74.310 424.500 C 70.217 435.944, 69.116 438.358, 61.995 451.500 C 56.715 461.244, 56.750 461.222, 43.500 462.853 C 39.270 463.373, 35.878 464.609, 32 467.042 C 28.975 468.941, 24.250 471.276, 21.500 472.233 C 18.318 473.340, 15.317 475.341, 13.246 477.736 C 9.030 482.611, 3 494.726, 3 498.319 C 3 500.931, 3.246 501.100, 6.638 500.810 C 9.493 500.567, 10.626 499.854, 11.897 497.500 C 19.134 484.102, 29.533 475.191, 43.442 470.468 C 49.764 468.322, 63.913 467.195, 74.515 467.994 C 82.218 468.574, 84.713 469.258, 92.004 472.784 C 96.682 475.046, 102.982 477.552, 106.004 478.353 C 114.384 480.572, 116.853 481.719, 123.591 486.528 C 143.332 500.615, 172.421 507.144, 194.717 502.493 C 202.556 500.857, 204.014 500.343, 214.503 495.513 C 222.409 491.873, 228.063 486.353, 231.070 479.337 C 233.021 474.784, 233.661 469, 232.212 469 C 231.779 469, 229.192 471.291, 226.462 474.092 C 220.135 480.585, 212.249 485.679, 204 488.603 C 197.267 490.989, 184.881 493.043, 181.909 492.266 C 179.691 491.686, 173.086 474.517, 168.149 456.500 C 165.406 446.488, 163.993 435.728, 163.386 420.245 C 163.025 411.035, 162.324 402.985, 161.829 402.355 C 161.334 401.725, 159.438 400.930, 157.617 400.588 C 155.795 400.246, 152.100 398.399, 149.406 396.483 C 146.711 394.567, 143.965 393, 143.303 393 C 142.641 393, 141.705 392.295, 141.222 391.432 C 140.740 390.570, 136.555 388.337, 131.923 386.469 C 126.933 384.457, 121.517 381.364, 118.631 378.878 C 115.031 375.777, 112.424 374.441, 108.632 373.751 C 104.172 372.941, 102.120 372.165, 96.353 369.108 C 95.722 368.774, 93.841 367.479, 92.173 366.232 C 89.868 364.508, 88.953 364.267, 88.359 365.227" stroke="none" fill="black" fill-rule="evenodd"/>
</svg>